PathFileType	4	(X/Y/Z)	s05c0201.trc
DataRate	CameraRate	NumFrames	NumMarkers	Units	OrigDataRate	OrigDataStartFrame	OrigNumFrames
200	200	5	50	mm	200	0	2000
Frame#	Time	racr			lacr			c7			jug			rlel			rdr			llel			ldr			s2			lic			ric			lasi			rasi			rpsi			lpsi			rgt			lgt			rth1			rth2			rth3			rth4			rlfc			rmfc			rsh1			rsh2			rsh3			rsh4			rlmal			rmmal			rcal			rtoe			rmt5			lth1			lth2			lth4			lth3			llfc			lmfc			lsh1			lsh2			lsh3			lsh4			llmal			lmmal			lcal			ltoe			lmt5			SBIKE			LBIKE			RBIKE			
		X1	Y1	Z1	X2	Y2	Z2	X3	Y3	Z3	X4	Y4	Z4	X5	Y5	Z5	X6	Y6	Z6	X7	Y7	Z7	X8	Y8	Z8	X9	Y9	Z9	X10	Y10	Z10	X11	Y11	Z11	X12	Y12	Z12	X13	Y13	Z13	X14	Y14	Z14	X15	Y15	Z15	X16	Y16	Z16	X17	Y17	Z17	X18	Y18	Z18	X19	Y19	Z19	X20	Y20	Z20	X21	Y21	Z21	X22	Y22	Z22	X23	Y23	Z23	X24	Y24	Z24	X25	Y25	Z25	X26	Y26	Z26	X27	Y27	Z27	X28	Y28	Z28	X29	Y29	Z29	X30	Y30	Z30	X31	Y31	Z31	X32	Y32	Z32	X33	Y33	Z33	X34	Y34	Z34	X35	Y35	Z35	X36	Y36	Z36	X37	Y37	Z37	X38	Y38	Z38	X39	Y39	Z39	X40	Y40	Z40	X41	Y41	Z41	X42	Y42	Z42	X43	Y43	Z43	X44	Y44	Z44	X45	Y45	Z45	X46	Y46	Z46	X47	Y47	Z47	X48	Y48	Z48	X49	Y49	Z49	X50	Y50	Z50	
0	0.0000	401.551820	1400.377771	-141.296699	403.591332	1415.366672	-432.168646	380.059432	1483.794080	-288.587497	372.180072	1326.283132	-289.215541	502.463334	1159.650960	-41.741251	684.171274	965.879071	-74.375320	479.496174	1157.838468	-536.463751	679.600292	968.242698	-500.236639	-114.387486	1153.623416	-276.996647	34.144993	1175.896297	-421.000986	37.123928	1192.444791	-141.176196	84.858200	1123.699366	-387.581195	78.802194	1131.669092	-169.554358	-84.302135	1201.010427	-238.250398	-82.196928	1203.272956	-324.364697	3.179008	1063.856911	-105.378452	-33.457101	1064.482831	-446.149015	104.894217	1010.503286	-94.887886	192.694014	997.128169	-96.400286	260.453547	940.694972	-98.606894	206.325285	1028.775833	-110.539995	393.647339	860.682994	-127.276636	381.339522	852.968051	-236.994478	332.102580	768.421324	-101.644847	323.905169	680.911214	-109.688036	274.691305	609.898939	-111.962875	351.998306	672.304658	-134.819009	234.086916	480.816936	-119.882795	245.359595	509.810472	-198.721934	161.443035	448.528957	-163.139758	455.648879	423.779016	-161.799922	355.673189	401.782986	-95.055150	47.962357	948.089685	-469.308721	118.815347	900.372266	-471.178173	147.757544	921.117485	-458.801763	156.278353	817.450152	-476.061939	229.429810	684.832578	-449.519012	222.399547	676.358658	-338.966230	134.898342	598.133321	-467.104949	97.531745	519.838820	-452.307917	23.699040	471.038403	-447.484025	123.332332	502.825423	-429.730753	-50.390770	371.790503	-434.154634	-16.556845	390.261970	-358.448318	-121.695514	352.049176	-388.827069	151.218758	243.711019	-402.086108	39.205811	252.054545	-462.149100	-266.091155	895.036243	-285.849363	-53.478746	79.321407	-474.892730	-53.190966	78.793388	-77.234160	
1	0.0050	401.535240	1400.351674	-141.324554	403.569762	1415.368568	-432.203386	380.043680	1483.733267	-288.629348	372.191603	1326.210790	-289.261880	502.417163	1159.636226	-41.698176	684.159611	965.881275	-74.369697	479.440243	1157.831621	-536.414576	679.548575	968.226994	-500.157955	-114.462724	1153.604292	-277.013345	34.092416	1175.901762	-421.113485	37.070185	1192.397716	-141.202602	84.784581	1123.654057	-387.663026	78.767746	1131.678969	-169.595322	-84.367525	1201.002684	-238.294807	-82.256551	1203.275580	-324.399812	3.113530	1063.948758	-105.384381	-33.619220	1064.432985	-446.172473	104.822413	1010.700380	-94.881938	192.669693	997.437167	-96.332021	260.465274	941.057766	-98.426439	206.261079	1029.064678	-110.477720	393.728655	861.237366	-127.097112	381.474120	853.483680	-236.798795	332.122570	768.981672	-101.500856	323.834213	681.490129	-109.573109	274.564657	610.491220	-111.893060	351.882608	672.789517	-134.729202	233.844566	481.477737	-119.935097	245.117671	510.444694	-198.701421	161.138886	449.280669	-163.131972	455.292594	424.482369	-161.801266	355.337918	402.457309	-95.049572	47.641484	947.913440	-469.346836	118.484304	900.119939	-471.238928	147.425848	920.831735	-458.890548	155.592002	817.108495	-476.476214	228.904563	684.532855	-449.612538	221.884477	675.994356	-339.070078	134.428463	597.702868	-467.147758	97.258597	519.402210	-452.375082	23.504351	470.362192	-447.476733	123.085975	502.377180	-429.810942	-50.345711	371.015258	-434.187795	-16.194484	389.292511	-358.606701	-121.604621	351.093069	-388.821372	151.469956	243.203206	-402.106188	39.442357	251.373455	-462.153972	-266.069208	895.139925	-285.610321	-53.484049	79.323039	-474.904087	-53.189649	78.806686	-77.193444	
2	0.0100	401.541878	1400.343827	-141.357436	403.531670	1415.367184	-432.226844	380.018712	1483.710598	-288.636458	372.195715	1326.159408	-289.301176	502.365469	1159.607504	-41.671009	684.134868	965.886374	-74.397064	479.405733	1157.810696	-536.378679	679.516332	968.220109	-500.096909	-114.523595	1153.605441	-277.029216	34.046742	1175.883865	-421.199773	37.050114	1192.346608	-141.229401	84.719918	1123.609062	-387.739156	78.736309	1131.680698	-169.663815	-84.406210	1201.003088	-238.331736	-82.306347	1203.269407	-324.435575	3.084364	1064.028104	-105.374346	-33.769250	1064.380783	-446.208882	104.792826	1010.888511	-94.875242	192.621050	997.672033	-96.281738	260.469757	941.388425	-98.263620	206.182110	1029.393686	-110.375194	393.830799	861.706642	-126.883695	381.598249	853.971551	-236.571984	332.139683	769.508077	-101.352477	323.741658	682.029104	-109.485077	274.424697	611.167930	-111.866947	351.775572	673.212346	-134.660875	233.508885	482.112285	-119.930384	244.775431	511.147910	-198.734025	160.864366	449.956613	-163.171241	455.013005	425.088550	-161.792936	355.018898	403.065796	-95.032305	47.386567	947.776921	-469.405522	118.151208	899.893198	-471.288658	147.139181	920.573623	-458.965285	155.158433	816.836958	-476.545650	228.410851	684.326802	-449.672482	221.250157	675.489228	-339.866614	134.006949	597.305171	-467.187152	96.973036	518.919826	-452.432089	23.327245	469.753164	-447.473283	122.858675	501.843769	-429.858102	-50.334155	370.211781	-434.130990	-16.355849	388.614173	-358.558532	-121.529966	350.194104	-388.799488	151.697249	242.749989	-402.094993	39.671610	250.709183	-462.148641	-266.040453	895.090239	-285.685715	-53.490570	79.332157	-474.914655	-53.193670	78.797935	-77.219155	
3	0.0150	401.581285	1400.309613	-141.380315	403.543563	1415.374296	-432.274281	380.020785	1483.671975	-288.700532	372.216177	1326.105295	-289.354151	502.313306	1159.583001	-41.628273	684.089420	965.878491	-74.462965	479.368768	1157.778770	-536.313964	679.484994	968.205065	-500.004066	-114.588255	1153.606166	-277.039813	33.988197	1175.866905	-421.259247	37.020721	1192.291721	-141.255822	84.653585	1123.550397	-387.805132	78.691712	1131.663937	-169.716942	-84.448519	1200.998489	-238.368575	-82.214497	1203.482858	-325.221111	2.963473	1063.956920	-105.345683	-33.938807	1064.340639	-446.217528	104.704320	1010.970876	-94.822766	192.552203	998.016397	-96.141124	260.384540	941.824956	-98.227922	206.010596	1029.575059	-110.467325	393.940063	862.143916	-126.676815	381.737785	854.404293	-236.286226	332.152831	769.999568	-101.234284	322.597186	681.565736	-109.955083	274.224933	611.730988	-111.796069	352.003137	673.797730	-134.360687	232.885188	483.312514	-119.679695	244.709031	511.760225	-198.723161	160.574810	450.625568	-163.175480	454.739939	425.654560	-161.772789	354.875763	403.627206	-95.094194	47.139366	947.648113	-469.472613	118.033688	899.104574	-471.197535	146.750621	920.260318	-458.856020	154.747791	816.580609	-476.590869	227.897275	684.036945	-449.702601	220.835684	675.227794	-339.918377	133.575263	596.938854	-467.230959	96.721011	518.421831	-452.477944	23.148718	469.145375	-447.495948	122.021548	501.411482	-429.382649	-50.305557	369.542438	-434.231248	-16.436591	388.033953	-358.502554	-121.384970	349.409703	-388.987985	151.951524	242.261090	-402.111887	39.926881	250.080313	-462.134392	-266.113557	895.117165	-285.659885	-53.484166	79.322270	-474.913324	-53.188148	78.809439	-77.210436	
4	0.0200	401.573350	1400.611685	-141.224262	403.451329	1415.708560	-432.231314	379.997622	1483.705092	-288.747678	372.143923	1326.496661	-289.353446	502.134662	1159.773093	-41.555795	683.997150	966.006302	-74.442613	479.292277	1157.944942	-536.411346	679.399686	968.184030	-499.847018	-114.732102	1153.691044	-276.956466	33.930522	1175.837112	-421.239854	36.899224	1192.125579	-141.666944	84.448570	1123.880158	-387.821179	78.670489	1131.613363	-169.870271	-84.371723	1201.345230	-238.473765	-82.286621	1203.490030	-325.263714	2.669761	1064.493151	-105.287516	-34.160577	1064.400694	-446.237845	104.566087	1011.417651	-94.757850	192.558823	998.379750	-95.969926	260.424490	942.341501	-97.997065	205.985061	1029.943504	-110.354061	394.114647	862.731168	-126.408620	381.860593	854.941405	-235.975474	331.973005	770.809399	-101.057650	322.321501	682.500476	-109.745791	273.870876	612.573311	-111.592572	351.858877	674.678997	-134.227029	232.607553	483.970961	-119.664655	244.029865	512.687647	-198.753871	160.190112	451.348404	-163.185719	454.313316	426.480997	-161.731018	354.300999	404.592918	-94.895256	46.958791	947.628665	-469.265429	117.737699	898.945722	-471.290931	146.498137	920.052607	-458.976865	154.450516	816.395879	-476.528848	227.448013	683.962175	-449.637685	220.263297	675.298123	-339.836880	133.139235	596.641005	-467.175657	96.327526	518.252754	-452.483771	22.987911	468.593827	-447.488745	121.803271	501.153901	-429.421239	-50.308043	368.808160	-434.386145	-16.162989	387.101929	-358.636709	-121.359099	348.577091	-388.932985	152.135449	241.809892	-402.227993	40.134390	249.446664	-462.175472	-265.671073	895.019652	-286.304365	-53.508914	79.211715	-475.028378	-53.449301	79.108475	-77.331812	
